<?xml version="1.0" standalone="no"?>
<!DOCTYPE svg PUBLIC "-//W3C//DTD SVG 20010904//EN"
 "http://www.w3.org/TR/2001/REC-SVG-20010904/DTD/svg10.dtd">
<svg version="1.0" xmlns="http://www.w3.org/2000/svg"
 width="100.000000pt" height="100.000000pt" viewBox="0 0 100.000000 100.000000"
 preserveAspectRatio="xMidYMid meet">

<g transform="translate(0.000000,100.000000) scale(0.100000,-0.100000)"
fill="#000000" stroke="none">
<path d="M384 981 c-83 -38 -114 -118 -107 -271 1 -14 1 -44 1 -68 0 -25 7
-53 19 -69 26 -38 83 -146 83 -159 0 -20 -36 -43 -98 -63 -78 -24 -156 -73
-182 -116 -22 -36 -27 -113 -9 -147 53 -99 597 -105 755 -7 32 20 34 23 34 79
0 52 -4 64 -31 95 -41 47 -97 78 -186 105 -46 14 -74 28 -78 39 -5 16 40 115
80 175 16 24 20 50 22 135 4 166 -25 237 -99 245 -12 1 -35 10 -49 19 -41 27
-107 31 -155 8z"/>
</g>
</svg>
