<?xml version="1.0" standalone="no"?>
<!DOCTYPE svg PUBLIC "-//W3C//DTD SVG 20010904//EN"
 "http://www.w3.org/TR/2001/REC-SVG-20010904/DTD/svg10.dtd">
<svg version="1.0" xmlns="http://www.w3.org/2000/svg"
 width="337.000000pt" height="335.000000pt" viewBox="0 0 337.000000 335.000000"
 preserveAspectRatio="xMidYMid meet">

<g transform="translate(0.000000,335.000000) scale(0.100000,-0.100000)"
fill="#000000" stroke="none">
<path d="M1506 3099 c-678 -71 -1234 -592 -1355 -1268 -24 -130 -28 -357 -10
-487 47 -337 209 -657 450 -890 240 -230 511 -367 829 -419 140 -22 388 -20
528 5 543 98 990 476 1182 1000 115 312 118 688 10 1010 -230 688 -912 1125
-1634 1049z m459 -639 c257 -65 480 -253 590 -494 67 -148 94 -314 75 -465
-44 -360 -276 -645 -613 -755 -178 -58 -397 -56 -561 6 -44 17 -96 36 -114 43
-29 10 -46 9 -120 -12 -347 -94 -382 -102 -382 -84 0 10 27 117 60 237 l60
219 -36 89 c-69 171 -89 344 -58 506 30 161 93 295 199 422 133 162 344 277
565 309 83 12 245 2 335 -21z"/>
<path d="M1570 2290 c-206 -54 -375 -191 -471 -385 -97 -196 -93 -433 11 -640
l39 -80 -24 -90 c-14 -49 -30 -105 -36 -123 -6 -19 -8 -36 -6 -39 3 -3 63 11
133 31 l127 35 43 -25 c177 -104 426 -123 617 -47 268 107 457 383 457 668 0
329 -247 632 -569 700 -98 20 -229 18 -321 -5z m-59 -301 c28 -14 89 -145 89
-189 0 -31 -11 -56 -52 -112 -10 -15 -9 -24 6 -53 41 -76 238 -235 290 -235 8
0 23 12 33 26 51 72 65 84 98 84 38 0 137 -49 178 -88 44 -42 33 -105 -30
-164 -60 -57 -162 -74 -260 -43 -82 27 -208 93 -270 143 -153 122 -283 325
-283 442 0 72 43 158 96 188 24 15 80 15 105 1z"/>
</g>
</svg>
