<?xml version="1.0" standalone="no"?>
<!DOCTYPE svg PUBLIC "-//W3C//DTD SVG 20010904//EN"
 "http://www.w3.org/TR/2001/REC-SVG-20010904/DTD/svg10.dtd">
<svg version="1.0" xmlns="http://www.w3.org/2000/svg"
 width="321.000000pt" height="327.000000pt" viewBox="0 0 321.000000 327.000000"
 preserveAspectRatio="xMidYMid meet">

<g transform="translate(0.000000,327.000000) scale(0.100000,-0.100000)"
fill="#000000" stroke="none">
<path d="M1374 3165 c-638 -93 -1162 -586 -1289 -1210 -128 -627 131 -1257
660 -1607 605 -402 1394 -329 1922 176 223 212 367 467 440 776 25 107 27 131
27 335 1 190 -2 233 -21 317 -147 653 -645 1117 -1303 1213 -117 18 -315 17
-436 0z m698 -626 c178 -37 338 -175 409 -354 24 -60 24 -63 27 -510 2 -310 0
-469 -8 -510 -37 -195 -185 -354 -390 -421 -48 -15 -105 -18 -466 -22 -476 -4
-539 2 -661 64 -104 52 -207 161 -250 262 -41 98 -43 121 -43 589 0 453 0 453
25 531 58 185 212 326 399 367 79 17 878 21 958 4z"/>
<path d="M1140 2356 c-25 -7 -60 -21 -79 -31 -51 -26 -133 -113 -161 -170
l-25 -50 0 -465 0 -465 32 -60 c30 -58 92 -126 143 -157 14 -8 48 -23 76 -32
45 -15 100 -16 490 -14 l439 3 66 32 c79 39 140 102 177 181 l27 57 3 433 c3
484 3 488 -65 589 -41 61 -81 94 -161 131 l-57 27 -430 2 c-323 1 -441 -1
-475 -11z m985 -140 c78 -33 86 -158 13 -193 -42 -20 -56 -22 -93 -12 -91 25
-100 166 -12 204 41 18 50 18 92 1z m-412 -141 c181 -47 305 -182 338 -367 43
-241 -139 -485 -385 -516 -90 -12 -196 6 -268 45 -79 42 -163 130 -201 210
-27 59 -32 81 -35 170 -3 77 0 114 13 155 75 229 312 362 538 303z"/>
<path d="M1513 1904 c-52 -19 -128 -85 -153 -134 -38 -74 -44 -125 -26 -193
24 -89 71 -148 147 -186 189 -94 404 38 403 248 -1 82 -26 140 -86 199 -77 74
-188 100 -285 66z"/>
</g>
</svg>
